<svg xmlns="http://www.w3.org/2000/svg" xmlns:xlink="http://www.w3.org/1999/xlink" width="160" zoomAndPan="magnify" viewBox="0 0 120 284.999983" height="380" preserveAspectRatio="xMidYMid meet" version="1.0"><defs><g/><clipPath id="283c4e6cc0"><path d="M 103.554688 56.023438 L 108 56.023438 L 108 60.46875 L 103.554688 60.46875 Z M 103.554688 56.023438 " clip-rule="nonzero"/></clipPath><clipPath id="260588febf"><path d="M 105.777344 56.023438 L 106.484375 57.539062 L 108 58.246094 L 106.484375 58.953125 L 105.777344 60.46875 L 105.070312 58.953125 L 103.554688 58.246094 L 105.070312 57.539062 L 105.777344 56.023438 " clip-rule="nonzero"/></clipPath></defs><rect x="-12" width="144" fill="#ffffff" y="-28.499998" height="341.99998" fill-opacity="1"/><rect x="-12" width="144" fill="#ffffff" y="-28.499998" height="341.99998" fill-opacity="1"/><rect x="-12" width="144" fill="#efebe5" y="-28.499998" height="341.99998" fill-opacity="1"/><g fill="#000000" fill-opacity="1"><g transform="translate(34.099441, 238.739291)"><g><path d="M 0.546875 -15.117188 C 0.546875 -17.476562 0.136719 -20.007812 -0.683594 -22.675781 L -3.558594 -22.367188 C -2.429688 -20.488281 -0.101562 -18.296875 -0.101562 -16.449219 C -0.101562 -10.226562 -5.4375 -5.644531 -12.074219 -5.644531 C -19.597656 -5.644531 -24.078125 -9.644531 -24.078125 -16.109375 C -24.078125 -18.058594 -22.027344 -20.074219 -20.519531 -22.46875 L -23.324219 -22.675781 C -24.25 -20.074219 -24.691406 -17.441406 -24.691406 -15.015625 C -24.691406 -7.523438 -20.382812 -1.539062 -12.074219 -1.539062 C -3.933594 -1.539062 0.546875 -7.183594 0.546875 -15.117188 Z M 0.546875 -15.117188 "/></g></g></g><g fill="#000000" fill-opacity="1"><g transform="translate(34.099441, 214.969564)"><g><path d="M 0.582031 -13.066406 C 0.582031 -20.828125 -5.128906 -24.589844 -11.9375 -24.589844 C -19.359375 -24.589844 -24.589844 -20.828125 -24.589844 -13.066406 C -24.589844 -5.335938 -19.359375 -1.539062 -11.9375 -1.539062 C -5.128906 -1.539062 0.582031 -5.335938 0.582031 -13.066406 Z M 0.0703125 -13.066406 C 0.0703125 -7.660156 -5.8125 -5.644531 -11.9375 -5.644531 C -17.988281 -5.644531 -24.078125 -7.320312 -24.078125 -13.066406 C -24.078125 -18.640625 -17.988281 -20.488281 -11.9375 -20.488281 C -5.8125 -20.488281 0.0703125 -18.640625 0.0703125 -13.066406 Z M 0.0703125 -13.066406 "/></g></g></g><g fill="#000000" fill-opacity="1"><g transform="translate(34.099441, 188.83996)"><g><path d="M 0 -3.351562 C -2.839844 -3.042969 -5.574219 -3.179688 -9.0625 -3.589844 L -23.015625 -5.164062 L 0 -13.203125 L 0 -15.765625 L -19.9375 -22.332031 L 0 -25.070312 L 0 -29.171875 L -24.007812 -25.855469 L -24.007812 -23.085938 L -3.214844 -16.210938 L -24.007812 -8.925781 L -24.007812 -4.824219 L -9.097656 -3.078125 C -5.847656 -2.703125 -3.042969 -1.949219 0 -0.785156 Z M 0 -3.351562 "/></g></g></g><g fill="#000000" fill-opacity="1"><g transform="translate(34.099441, 158.024822)"><g><path d="M 0 -6.15625 L -24.007812 -6.15625 L -24.007812 -2.050781 L 0 -2.050781 Z M 0 -6.15625 "/></g></g></g><g fill="#000000" fill-opacity="1"><g transform="translate(34.099441, 149.816571)"><g><path d="M 0 -3.933594 C -2.769531 -3.179688 -5.402344 -3.078125 -8.070312 -3.078125 L -21.582031 -3.078125 L 0 -17.988281 L 0 -21.511719 L -16.449219 -21.511719 C -18.8125 -21.511719 -21.648438 -21.75 -24.007812 -22.367188 L -24.007812 -20.144531 C -21.648438 -20.792969 -18.84375 -21 -16.449219 -21 L -1.746094 -21 L -24.007812 -5.574219 L -24.007812 -2.566406 L -8.070312 -2.566406 C -5.128906 -2.566406 -2.769531 -2.460938 0 -1.710938 Z M 0 -3.933594 "/></g></g></g><g fill="#000000" fill-opacity="1"><g transform="translate(34.099441, 126.012639)"><g><path d="M 0.511719 -15.183594 C 0.511719 -17.988281 -0.136719 -21.035156 -1.402344 -24.078125 L -12.550781 -24.078125 L -12.550781 -19.972656 L -1.027344 -19.972656 C -0.34375 -18.570312 -0.0703125 -17.167969 -0.0703125 -15.800781 C -0.0703125 -10.226562 -4.410156 -5.644531 -12.414062 -5.644531 C -19.835938 -5.644531 -23.90625 -9.371094 -23.90625 -14.5 C -23.90625 -17.167969 -22.742188 -20.246094 -20.246094 -23.460938 L -22.984375 -23.632812 C -24.007812 -20.828125 -24.488281 -18.023438 -24.488281 -15.425781 C -24.488281 -7.660156 -20.179688 -1.539062 -12.414062 -1.539062 C -4.136719 -1.539062 0.511719 -7.523438 0.511719 -15.183594 Z M 0.511719 -15.183594 "/></g></g></g><g fill="#000000" fill-opacity="1"><g transform="translate(66.543882, 238.739291)"><g><path d="M 0.480469 -11.046875 C 0.480469 -17.167969 -2.050781 -21.648438 -6.667969 -21.375 C -13.75 -21 -15.699219 -4.546875 -20.351562 -4.242188 C -22.777344 -4.105469 -23.941406 -6.738281 -23.941406 -10.328125 C -23.941406 -12.792969 -22.710938 -16.3125 -20.488281 -19.800781 L -23.222656 -20.109375 C -24.144531 -17.03125 -24.589844 -14.023438 -24.589844 -11.320312 C -24.589844 -5.675781 -22.605469 -0.890625 -18.535156 -1.128906 C -12.792969 -1.4375 -11.628906 -16.144531 -5.917969 -17.648438 C -2.597656 -18.503906 -0.207031 -15.765625 -0.207031 -11.695312 C -0.207031 -9.027344 -1.402344 -5.644531 -4.035156 -1.640625 L -1.300781 -1.367188 C -0.101562 -4.789062 0.480469 -8.105469 0.480469 -11.046875 Z M 0.480469 -11.046875 "/></g></g></g><g fill="#000000" fill-opacity="1"><g transform="translate(66.543882, 215.653587)"><g><path d="M 0.582031 -13.066406 C 0.582031 -20.828125 -5.128906 -24.589844 -11.9375 -24.589844 C -19.359375 -24.589844 -24.589844 -20.828125 -24.589844 -13.066406 C -24.589844 -5.335938 -19.359375 -1.539062 -11.9375 -1.539062 C -5.128906 -1.539062 0.582031 -5.335938 0.582031 -13.066406 Z M 0.0703125 -13.066406 C 0.0703125 -7.660156 -5.8125 -5.644531 -11.9375 -5.644531 C -17.988281 -5.644531 -24.078125 -7.320312 -24.078125 -13.066406 C -24.078125 -18.640625 -17.988281 -20.488281 -11.9375 -20.488281 C -5.8125 -20.488281 0.0703125 -18.640625 0.0703125 -13.066406 Z M 0.0703125 -13.066406 "/></g></g></g><g fill="#000000" fill-opacity="1"><g transform="translate(66.543882, 189.523986)"><g><path d="M 0.582031 -13.066406 C 0.582031 -20.828125 -5.128906 -24.589844 -11.9375 -24.589844 C -19.359375 -24.589844 -24.589844 -20.828125 -24.589844 -13.066406 C -24.589844 -5.335938 -19.359375 -1.539062 -11.9375 -1.539062 C -5.128906 -1.539062 0.582031 -5.335938 0.582031 -13.066406 Z M 0.0703125 -13.066406 C 0.0703125 -7.660156 -5.8125 -5.644531 -11.9375 -5.644531 C -17.988281 -5.644531 -24.078125 -7.320312 -24.078125 -13.066406 C -24.078125 -18.640625 -17.988281 -20.488281 -11.9375 -20.488281 C -5.8125 -20.488281 0.0703125 -18.640625 0.0703125 -13.066406 Z M 0.0703125 -13.066406 "/></g></g></g><g fill="#000000" fill-opacity="1"><g transform="translate(66.543882, 163.394384)"><g><path d="M 0 -3.933594 C -2.769531 -3.179688 -5.402344 -3.078125 -8.070312 -3.078125 L -21.582031 -3.078125 L 0 -17.988281 L 0 -21.511719 L -16.449219 -21.511719 C -18.8125 -21.511719 -21.648438 -21.75 -24.007812 -22.367188 L -24.007812 -20.144531 C -21.648438 -20.792969 -18.84375 -21 -16.449219 -21 L -1.746094 -21 L -24.007812 -5.574219 L -24.007812 -2.566406 L -8.070312 -2.566406 C -5.128906 -2.566406 -2.769531 -2.460938 0 -1.710938 Z M 0 -3.933594 "/></g></g></g><g clip-path="url(#283c4e6cc0)"><g clip-path="url(#260588febf)"><path fill="#000000" d="M 103.554688 56.023438 L 108 56.023438 L 108 60.46875 L 103.554688 60.46875 Z M 103.554688 56.023438 " fill-opacity="1" fill-rule="nonzero"/></g></g><g fill="#000000" fill-opacity="1"><g transform="translate(72.135098, 72.636305)"><g><path d="M 3.628906 -3.421875 C 3.78125 -4.042969 3.382812 -4.398438 2.699219 -4.398438 L 0.800781 -4.398438 L 0.800781 -4.359375 L 1.324219 -4.144531 L 0.351562 -0.253906 L -0.203125 -0.0390625 L -0.203125 0 L 1.316406 0 C 2.582031 0 3.167969 -0.652344 3.316406 -1.25 C 3.507812 -2.007812 3.011719 -2.289062 2.613281 -2.3125 L 2.625 -2.339844 C 2.59375 -2.328125 3.46875 -2.761719 3.628906 -3.421875 Z M 1.246094 -2.328125 L 1.726562 -4.269531 L 2.449219 -4.269531 C 3.140625 -4.269531 3.34375 -3.871094 3.214844 -3.332031 C 3.042969 -2.679688 2.679688 -2.339844 2.015625 -2.332031 Z M 2.894531 -1.226562 C 2.699219 -0.4375 2.203125 -0.15625 1.335938 -0.136719 C 1.289062 -0.136719 1.011719 -0.144531 0.699219 -0.144531 L 1.21875 -2.214844 L 1.859375 -2.214844 C 2.828125 -2.214844 3.0625 -1.898438 2.894531 -1.226562 Z M 2.894531 -1.226562 "/></g></g></g><g fill="#000000" fill-opacity="1"><g transform="translate(75.967332, 72.636305)"><g><path d="M 3.058594 -3.234375 C 2.960938 -3.167969 2.875 -3.117188 2.777344 -3.117188 C 2.566406 -3.117188 2.351562 -3.453125 2.210938 -3.453125 C 1.800781 -3.453125 1.082031 -1.5625 0.816406 -0.621094 L 0.738281 -0.621094 L 1.363281 -2.777344 C 1.421875 -3.433594 1.296875 -3.460938 1.199219 -3.460938 C 0.953125 -3.460938 0.34375 -2.796875 0.0585938 -2.5625 L 0.0703125 -2.542969 L 1.0625 -3.148438 L 0.320312 0 L 0.679688 0 C 1.121094 -1.445312 1.824219 -3.101562 2.117188 -3.101562 C 2.253906 -3.101562 2.4375 -2.839844 2.542969 -2.839844 C 2.632812 -2.839844 2.90625 -3.101562 3.070312 -3.207031 Z M 3.058594 -3.234375 "/></g></g></g><g fill="#000000" fill-opacity="1"><g transform="translate(78.574302, 72.636305)"><g><path d="M 1.804688 -0.207031 L 2.507812 -2.761719 L 2.769531 -3.578125 L 2.742188 -3.585938 L 2.367188 -3.285156 C 2.191406 -3.375 1.96875 -3.429688 1.753906 -3.429688 C 0.855469 -3.429688 0.0898438 -1.660156 0.0898438 -0.640625 C 0.0898438 -0.222656 0.222656 0.0703125 0.585938 0.0703125 C 1.269531 0.0703125 1.601562 -1.199219 2.132812 -2.78125 L 2.210938 -2.78125 L 1.601562 -0.640625 C 1.542969 0.0195312 1.667969 0.046875 1.765625 0.046875 C 2.015625 0.046875 2.621094 -0.621094 2.90625 -0.855469 L 2.894531 -0.875 Z M 0.789062 -0.226562 C 0.582031 -0.226562 0.488281 -0.460938 0.488281 -0.808594 C 0.488281 -1.6875 0.945312 -3.265625 1.558594 -3.265625 C 1.746094 -3.265625 1.949219 -3.179688 2.113281 -3.03125 C 1.199219 -0.265625 1.015625 -0.226562 0.789062 -0.226562 Z M 0.789062 -0.226562 "/></g></g></g><g fill="#000000" fill-opacity="1"><g transform="translate(81.683109, 72.636305)"><g><path d="M 2.058594 -0.1875 L 2.808594 -2.253906 C 3.128906 -3.136719 2.886719 -3.480469 2.585938 -3.480469 C 1.902344 -3.480469 1.132812 -1.6875 0.761719 -0.621094 L 0.683594 -0.621094 L 1.363281 -2.777344 C 1.421875 -3.433594 1.296875 -3.460938 1.199219 -3.460938 C 0.953125 -3.460938 0.34375 -2.796875 0.0585938 -2.5625 L 0.0703125 -2.542969 L 1.070312 -3.15625 L 0.261719 0 L 0.621094 0 C 1.109375 -1.445312 1.882812 -3.1875 2.328125 -3.1875 C 2.46875 -3.1875 2.71875 -3.003906 2.445312 -2.242188 L 1.859375 -0.621094 C 1.800781 0.0390625 1.921875 0.0664062 2.019531 0.0664062 C 2.269531 0.0664062 2.875 -0.601562 3.160156 -0.835938 L 3.148438 -0.855469 Z M 2.058594 -0.1875 "/></g></g></g><g fill="#000000" fill-opacity="1"><g transform="translate(85.111267, 72.636305)"><g><path d="M 3.109375 -4.945312 L 3.070312 -4.945312 L 1.851562 -4.667969 L 1.839844 -4.628906 L 2.679688 -4.667969 L 2.339844 -3.296875 C 2.171875 -3.382812 1.960938 -3.429688 1.753906 -3.429688 C 0.855469 -3.429688 0.0898438 -1.660156 0.0898438 -0.640625 C 0.0898438 -0.222656 0.222656 0.0703125 0.585938 0.0703125 C 1.269531 0.0703125 1.601562 -1.199219 2.132812 -2.78125 L 2.210938 -2.78125 L 1.667969 -0.621094 C 1.609375 0.0390625 1.734375 0.0664062 1.832031 0.0664062 C 2.078125 0.0664062 2.683594 -0.601562 2.972656 -0.835938 L 2.960938 -0.855469 L 1.871094 -0.1875 L 3.109375 -4.925781 L 3.101562 -4.921875 Z M 0.789062 -0.226562 C 0.582031 -0.226562 0.488281 -0.460938 0.488281 -0.808594 C 0.488281 -1.6875 0.945312 -3.265625 1.558594 -3.265625 C 1.746094 -3.265625 1.949219 -3.179688 2.113281 -3.03125 C 1.199219 -0.265625 1.015625 -0.226562 0.789062 -0.226562 Z M 0.789062 -0.226562 "/></g></g></g><g fill="#000000" fill-opacity="1"><g transform="translate(88.291765, 72.636305)"><g/></g></g><g fill="#000000" fill-opacity="1"><g transform="translate(89.33457, 72.636305)"><g><path d="M 2.503906 -4.398438 L 0.800781 -4.398438 L 0.800781 -4.359375 L 1.328125 -4.144531 L 0.34375 -0.226562 L -0.28125 -0.0390625 L -0.28125 0 L 1.226562 0 L 1.226562 -0.0390625 L 0.71875 -0.226562 L 1.191406 -2.132812 L 1.8125 -2.125 L 2.488281 -0.253906 L 1.976562 -0.0390625 L 1.976562 0 L 2.964844 0 L 2.972656 -0.0390625 L 2.195312 -2.125 L 2.203125 -2.125 C 2.964844 -2.378906 3.511719 -2.621094 3.675781 -3.246094 C 3.839844 -3.898438 3.441406 -4.398438 2.503906 -4.398438 Z M 3.265625 -3.179688 C 3.089844 -2.476562 2.527344 -2.25 1.890625 -2.25 L 1.226562 -2.25 L 1.734375 -4.28125 L 2.386719 -4.28125 C 3.199219 -4.28125 3.402344 -3.742188 3.265625 -3.179688 Z M 3.265625 -3.179688 "/></g></g></g><g fill="#000000" fill-opacity="1"><g transform="translate(93.042975, 72.636305)"><g><path d="M 2.429688 -2.914062 C 2.429688 -3.089844 2.332031 -3.460938 1.746094 -3.460938 C 1.550781 -3.460938 0.644531 -3.160156 0.273438 -1.824219 C -0.0585938 -0.625 0.371094 0.0664062 1.082031 0.0664062 C 1.265625 0.0664062 1.53125 -0.0976562 1.960938 -0.382812 L 1.929688 -0.421875 C 1.726562 -0.304688 1.621094 -0.203125 1.347656 -0.203125 C 0.660156 -0.203125 0.441406 -0.867188 0.527344 -1.609375 C 1.425781 -1.765625 2.429688 -2.085938 2.429688 -2.914062 Z M 1.558594 -3.1875 C 1.96875 -3.1875 2.019531 -2.914062 2.019531 -2.75 C 2.019531 -2.007812 1.050781 -1.78125 0.546875 -1.714844 C 0.558594 -1.820312 0.585938 -1.929688 0.613281 -2.039062 C 0.886719 -3.097656 1.335938 -3.1875 1.558594 -3.1875 Z M 1.558594 -3.1875 "/></g></g></g><g fill="#000000" fill-opacity="1"><g transform="translate(95.526115, 72.636305)"><g><path d="M 2 -4.960938 C 1.6875 -4.960938 1.054688 -4.710938 0.917969 -3.785156 L 0.859375 -3.402344 L 0.3125 -3.402344 L 0.304688 -3.363281 L 0.820312 -3.277344 L 0.839844 -3.277344 L 0.234375 -0.359375 C -0.0195312 0.867188 -0.183594 1.179688 -0.859375 1.25 C -1.003906 1.265625 -1.167969 1.269531 -1.355469 1.269531 L -1.375 1.289062 L -1.445312 1.660156 C -0.382812 1.558594 0.398438 0.652344 0.632812 -0.5 L 1.191406 -3.277344 L 1.199219 -3.277344 C 1.617188 -3.246094 2.105469 -3.1875 2.203125 -3.1875 L 2.261719 -3.402344 L 1.226562 -3.402344 C 1.210938 -3.609375 1.128906 -3.910156 1.179688 -4.203125 C 1.246094 -4.542969 1.484375 -4.777344 1.824219 -4.777344 C 2.234375 -4.777344 2.59375 -4.414062 2.457031 -3.929688 L 2.484375 -3.910156 L 2.835938 -4.453125 C 2.730469 -4.710938 2.507812 -4.960938 2 -4.960938 Z M 2 -4.960938 "/></g></g></g><g fill="#000000" fill-opacity="1"><g transform="translate(97.246725, 72.636305)"><g><path d="M 3.058594 -3.234375 C 2.960938 -3.167969 2.875 -3.117188 2.777344 -3.117188 C 2.566406 -3.117188 2.351562 -3.453125 2.210938 -3.453125 C 1.800781 -3.453125 1.082031 -1.5625 0.816406 -0.621094 L 0.738281 -0.621094 L 1.363281 -2.777344 C 1.421875 -3.433594 1.296875 -3.460938 1.199219 -3.460938 C 0.953125 -3.460938 0.34375 -2.796875 0.0585938 -2.5625 L 0.0703125 -2.542969 L 1.0625 -3.148438 L 0.320312 0 L 0.679688 0 C 1.121094 -1.445312 1.824219 -3.101562 2.117188 -3.101562 C 2.253906 -3.101562 2.4375 -2.839844 2.542969 -2.839844 C 2.632812 -2.839844 2.90625 -3.101562 3.070312 -3.207031 Z M 3.058594 -3.234375 "/></g></g></g><g fill="#000000" fill-opacity="1"><g transform="translate(99.853695, 72.636305)"><g><path d="M 2.429688 -2.914062 C 2.429688 -3.089844 2.332031 -3.460938 1.746094 -3.460938 C 1.550781 -3.460938 0.644531 -3.160156 0.273438 -1.824219 C -0.0585938 -0.625 0.371094 0.0664062 1.082031 0.0664062 C 1.265625 0.0664062 1.53125 -0.0976562 1.960938 -0.382812 L 1.929688 -0.421875 C 1.726562 -0.304688 1.621094 -0.203125 1.347656 -0.203125 C 0.660156 -0.203125 0.441406 -0.867188 0.527344 -1.609375 C 1.425781 -1.765625 2.429688 -2.085938 2.429688 -2.914062 Z M 1.558594 -3.1875 C 1.96875 -3.1875 2.019531 -2.914062 2.019531 -2.75 C 2.019531 -2.007812 1.050781 -1.78125 0.546875 -1.714844 C 0.558594 -1.820312 0.585938 -1.929688 0.613281 -2.039062 C 0.886719 -3.097656 1.335938 -3.1875 1.558594 -3.1875 Z M 1.558594 -3.1875 "/></g></g></g><g fill="#000000" fill-opacity="1"><g transform="translate(102.336836, 72.636305)"><g><path d="M 0.878906 0.0703125 C 1.402344 0.0703125 1.746094 -0.148438 1.929688 -0.652344 C 2.125 -1.191406 1.820312 -1.582031 1.421875 -1.890625 L 1.355469 -1.9375 C 1.015625 -2.195312 0.742188 -2.574219 0.894531 -2.964844 C 0.976562 -3.21875 1.257812 -3.34375 1.519531 -3.34375 C 2.210938 -3.34375 2.292969 -2.835938 2.113281 -2.074219 L 2.144531 -2.074219 L 2.503906 -3.277344 C 2.152344 -3.46875 1.898438 -3.492188 1.726562 -3.492188 C 1.207031 -3.492188 0.820312 -3.234375 0.683594 -2.867188 C 0.457031 -2.25 0.777344 -1.898438 1.113281 -1.597656 L 1.167969 -1.550781 C 1.523438 -1.246094 1.8125 -0.847656 1.65625 -0.4375 C 1.550781 -0.148438 1.296875 -0.0507812 1.023438 -0.0507812 C 0.582031 -0.0507812 0.03125 -0.242188 0.253906 -1.316406 L 0.214844 -1.316406 L -0.0976562 -0.0585938 C 0.125 -0.0273438 0.519531 0.0703125 0.878906 0.0703125 Z M 0.878906 0.0703125 "/></g></g></g><g fill="#000000" fill-opacity="1"><g transform="translate(104.98943, 72.636305)"><g><path d="M 1.804688 -0.1875 L 2.554688 -2.253906 C 2.875 -3.136719 2.632812 -3.480469 2.332031 -3.480469 C 1.648438 -3.480469 0.878906 -1.6875 0.507812 -0.621094 L 0.429688 -0.621094 L 1.609375 -4.796875 L 1.65625 -4.945312 L 1.617188 -4.945312 L 0.398438 -4.667969 L 0.382812 -4.628906 L 1.210938 -4.667969 L 0.0078125 0 L 0.363281 0 C 0.855469 -1.445312 1.628906 -3.1875 2.074219 -3.1875 C 2.214844 -3.1875 2.464844 -3.003906 2.191406 -2.242188 L 1.601562 -0.621094 C 1.542969 0.0390625 1.667969 0.0664062 1.765625 0.0664062 C 2.015625 0.0664062 2.621094 -0.601562 2.90625 -0.835938 L 2.894531 -0.855469 Z M 1.804688 -0.1875 "/></g></g></g><g fill="#000000" fill-opacity="1"><g transform="translate(81.31218, 80.969638)"><g><path d="M 2.886719 -1.367188 C 2.261719 -0.148438 2.300781 -0.117188 1.832031 -0.117188 L 0.671875 -0.117188 L 1.679688 -4.171875 L 2.308594 -4.359375 L 2.308594 -4.398438 L 0.800781 -4.398438 L 0.800781 -4.359375 L 1.308594 -4.171875 L 0.332031 -0.253906 L -0.222656 -0.0390625 L -0.222656 0 L 2.582031 0 L 2.921875 -1.347656 Z M 2.886719 -1.367188 "/></g></g></g><g fill="#000000" fill-opacity="1"><g transform="translate(84.603473, 80.969638)"><g><path d="M 1.804688 -0.207031 L 2.507812 -2.761719 L 2.769531 -3.578125 L 2.742188 -3.585938 L 2.367188 -3.285156 C 2.191406 -3.375 1.96875 -3.429688 1.753906 -3.429688 C 0.855469 -3.429688 0.0898438 -1.660156 0.0898438 -0.640625 C 0.0898438 -0.222656 0.222656 0.0703125 0.585938 0.0703125 C 1.269531 0.0703125 1.601562 -1.199219 2.132812 -2.78125 L 2.210938 -2.78125 L 1.601562 -0.640625 C 1.542969 0.0195312 1.667969 0.046875 1.765625 0.046875 C 2.015625 0.046875 2.621094 -0.621094 2.90625 -0.855469 L 2.894531 -0.875 Z M 0.789062 -0.226562 C 0.582031 -0.226562 0.488281 -0.460938 0.488281 -0.808594 C 0.488281 -1.6875 0.945312 -3.265625 1.558594 -3.265625 C 1.746094 -3.265625 1.949219 -3.179688 2.113281 -3.03125 C 1.199219 -0.265625 1.015625 -0.226562 0.789062 -0.226562 Z M 0.789062 -0.226562 "/></g></g></g><g fill="#000000" fill-opacity="1"><g transform="translate(87.71228, 80.969638)"><g><path d="M 2.195312 -0.246094 L 3.003906 -3.402344 L 2.644531 -3.402344 C 2.15625 -1.957031 1.382812 -0.214844 0.9375 -0.214844 C 0.796875 -0.214844 0.546875 -0.398438 0.820312 -1.160156 L 1.40625 -2.78125 C 1.464844 -3.441406 1.34375 -3.46875 1.246094 -3.46875 C 0.996094 -3.46875 0.390625 -2.800781 0.105469 -2.566406 L 0.117188 -2.546875 L 1.207031 -3.214844 L 0.457031 -1.148438 C 0.136719 -0.265625 0.378906 0.078125 0.679688 0.078125 C 1.363281 0.078125 2.132812 -1.714844 2.503906 -2.78125 L 2.582031 -2.78125 L 1.902344 -0.625 C 1.84375 0.03125 1.96875 0.0585938 2.066406 0.0585938 C 2.3125 0.0585938 2.921875 -0.605469 3.207031 -0.839844 L 3.195312 -0.859375 Z M 2.195312 -0.246094 "/></g></g></g><g fill="#000000" fill-opacity="1"><g transform="translate(91.140438, 80.969638)"><g><path d="M 2.058594 -0.1875 L 2.808594 -2.253906 C 3.128906 -3.136719 2.886719 -3.480469 2.585938 -3.480469 C 1.902344 -3.480469 1.132812 -1.6875 0.761719 -0.621094 L 0.683594 -0.621094 L 1.363281 -2.777344 C 1.421875 -3.433594 1.296875 -3.460938 1.199219 -3.460938 C 0.953125 -3.460938 0.34375 -2.796875 0.0585938 -2.5625 L 0.0703125 -2.542969 L 1.070312 -3.15625 L 0.261719 0 L 0.621094 0 C 1.109375 -1.445312 1.882812 -3.1875 2.328125 -3.1875 C 2.46875 -3.1875 2.71875 -3.003906 2.445312 -2.242188 L 1.859375 -0.621094 C 1.800781 0.0390625 1.921875 0.0664062 2.019531 0.0664062 C 2.269531 0.0664062 2.875 -0.601562 3.160156 -0.835938 L 3.148438 -0.855469 Z M 2.058594 -0.1875 "/></g></g></g><g fill="#000000" fill-opacity="1"><g transform="translate(94.568596, 80.969638)"><g><path d="M 1.015625 0.0664062 C 1.199219 0.0664062 1.464844 -0.0976562 1.898438 -0.382812 L 1.863281 -0.421875 C 1.660156 -0.304688 1.558594 -0.203125 1.285156 -0.203125 C 0.460938 -0.203125 0.378906 -1.140625 0.613281 -2.039062 C 0.886719 -3.101562 1.347656 -3.1875 1.570312 -3.1875 C 1.957031 -3.1875 2.132812 -2.933594 2.085938 -2.398438 L 2.105469 -2.378906 L 2.46875 -2.757812 C 2.46875 -2.960938 2.429688 -3.460938 1.761719 -3.460938 C 1.5625 -3.460938 0.644531 -3.167969 0.273438 -1.824219 C -0.0585938 -0.625 0.304688 0.0664062 1.015625 0.0664062 Z M 1.015625 0.0664062 "/></g></g></g><g fill="#000000" fill-opacity="1"><g transform="translate(96.967011, 80.969638)"><g><path d="M 1.804688 -0.1875 L 2.554688 -2.253906 C 2.875 -3.136719 2.632812 -3.480469 2.332031 -3.480469 C 1.648438 -3.480469 0.878906 -1.6875 0.507812 -0.621094 L 0.429688 -0.621094 L 1.609375 -4.796875 L 1.65625 -4.945312 L 1.617188 -4.945312 L 0.398438 -4.667969 L 0.382812 -4.628906 L 1.210938 -4.667969 L 0.0078125 0 L 0.363281 0 C 0.855469 -1.445312 1.628906 -3.1875 2.074219 -3.1875 C 2.214844 -3.1875 2.464844 -3.003906 2.191406 -2.242188 L 1.601562 -0.621094 C 1.542969 0.0390625 1.667969 0.0664062 1.765625 0.0664062 C 2.015625 0.0664062 2.621094 -0.601562 2.90625 -0.835938 L 2.894531 -0.855469 Z M 1.804688 -0.1875 "/></g></g></g><g fill="#000000" fill-opacity="1"><g transform="translate(100.140991, 80.969638)"><g><path d="M 1.550781 -4.699219 C 1.375 -4.699219 1.226562 -4.570312 1.199219 -4.40625 C 1.171875 -4.238281 1.285156 -4.101562 1.453125 -4.101562 C 1.621094 -4.101562 1.773438 -4.238281 1.800781 -4.40625 C 1.824219 -4.570312 1.714844 -4.699219 1.550781 -4.699219 Z M 1.453125 -3.527344 L 1.414062 -3.527344 L 0.214844 -2.761719 L 0.226562 -2.730469 L 0.933594 -3.011719 L 0.253906 -0.640625 C 0.195312 0.0195312 0.320312 0.046875 0.417969 0.046875 C 0.664062 0.046875 1.269531 -0.621094 1.558594 -0.855469 L 1.542969 -0.875 L 0.460938 -0.214844 Z M 1.453125 -3.527344 "/></g></g></g><g fill="#000000" fill-opacity="1"><g transform="translate(101.900706, 80.969638)"><g><path d="M 2.058594 -0.1875 L 2.808594 -2.253906 C 3.128906 -3.136719 2.886719 -3.480469 2.585938 -3.480469 C 1.902344 -3.480469 1.132812 -1.6875 0.761719 -0.621094 L 0.683594 -0.621094 L 1.363281 -2.777344 C 1.421875 -3.433594 1.296875 -3.460938 1.199219 -3.460938 C 0.953125 -3.460938 0.34375 -2.796875 0.0585938 -2.5625 L 0.0703125 -2.542969 L 1.070312 -3.15625 L 0.261719 0 L 0.621094 0 C 1.109375 -1.445312 1.882812 -3.1875 2.328125 -3.1875 C 2.46875 -3.1875 2.71875 -3.003906 2.445312 -2.242188 L 1.859375 -0.621094 C 1.800781 0.0390625 1.921875 0.0664062 2.019531 0.0664062 C 2.269531 0.0664062 2.875 -0.601562 3.160156 -0.835938 L 3.148438 -0.855469 Z M 2.058594 -0.1875 "/></g></g></g><g fill="#000000" fill-opacity="1"><g transform="translate(105.328864, 80.969638)"><g><path d="M 2.367188 -3.285156 C 2.191406 -3.375 1.96875 -3.429688 1.753906 -3.429688 C 0.855469 -3.429688 0.0898438 -1.660156 0.0898438 -0.640625 C 0.0898438 -0.222656 0.222656 0.0703125 0.585938 0.0703125 C 1.269531 0.0703125 1.601562 -1.199219 2.132812 -2.78125 L 2.210938 -2.78125 L 1.550781 -0.359375 C 1.167969 1.054688 1.132812 1.269531 -0.246094 1.269531 L -0.265625 1.289062 L -0.339844 1.660156 C 0.984375 1.558594 1.589844 0.632812 1.898438 -0.5 L 2.507812 -2.761719 L 2.769531 -3.578125 L 2.742188 -3.585938 Z M 0.789062 -0.226562 C 0.582031 -0.226562 0.488281 -0.460938 0.488281 -0.808594 C 0.488281 -1.6875 0.945312 -3.265625 1.558594 -3.265625 C 1.746094 -3.265625 1.949219 -3.179688 2.113281 -3.03125 C 1.199219 -0.265625 1.015625 -0.226562 0.789062 -0.226562 Z M 0.789062 -0.226562 "/></g></g></g><g fill="#000000" fill-opacity="1"><g transform="translate(83.586485, 89.30297)"><g><path d="M 2.992188 -4.359375 C 3.609375 -4.160156 3.714844 -4.152344 3.472656 -3.1875 L 2.867188 -0.757812 L 2.839844 -0.757812 L 1.511719 -4.398438 L 1.054688 -4.398438 L 1.050781 -4.359375 L 1.199219 -4.085938 L 0.183594 0 L 1.109375 0 L 1.109375 -0.0390625 C 0.480469 -0.242188 0.378906 -0.246094 0.621094 -1.210938 L 1.269531 -3.824219 L 1.304688 -3.824219 L 2.761719 0.0664062 L 2.796875 0.0664062 L 3.910156 -4.398438 L 2.992188 -4.398438 Z M 2.992188 -4.359375 "/></g></g></g><g fill="#000000" fill-opacity="1"><g transform="translate(87.581653, 89.30297)"><g><path d="M 2.429688 -2.914062 C 2.429688 -3.089844 2.332031 -3.460938 1.746094 -3.460938 C 1.550781 -3.460938 0.644531 -3.160156 0.273438 -1.824219 C -0.0585938 -0.625 0.371094 0.0664062 1.082031 0.0664062 C 1.265625 0.0664062 1.53125 -0.0976562 1.960938 -0.382812 L 1.929688 -0.421875 C 1.726562 -0.304688 1.621094 -0.203125 1.347656 -0.203125 C 0.660156 -0.203125 0.441406 -0.867188 0.527344 -1.609375 C 1.425781 -1.765625 2.429688 -2.085938 2.429688 -2.914062 Z M 1.558594 -3.1875 C 1.96875 -3.1875 2.019531 -2.914062 2.019531 -2.75 C 2.019531 -2.007812 1.050781 -1.78125 0.546875 -1.714844 C 0.558594 -1.820312 0.585938 -1.929688 0.613281 -2.039062 C 0.886719 -3.097656 1.335938 -3.1875 1.558594 -3.1875 Z M 1.558594 -3.1875 "/></g></g></g><g fill="#000000" fill-opacity="1"><g transform="translate(90.064793, 89.30297)"><g><path d="M 1.355469 -2.789062 C 1.226562 -3.277344 1.21875 -3.460938 1.054688 -3.460938 C 0.808594 -3.460938 0.332031 -2.796875 0.046875 -2.5625 L 0.0585938 -2.542969 L 0.972656 -3.148438 L 1.1875 -1.53125 C 0.859375 -0.828125 0.660156 -0.402344 0.175781 -0.402344 L 0.03125 -0.402344 L -0.117188 -0.0117188 L -0.105469 0.0195312 C 0.625 0.0859375 0.796875 -0.421875 1.210938 -1.363281 L 1.308594 -0.621094 C 1.453125 -0.136719 1.464844 0.046875 1.628906 0.046875 C 1.878906 0.03125 2.332031 -0.644531 2.613281 -0.886719 L 2.601562 -0.90625 L 1.707031 -0.273438 L 1.472656 -1.9375 C 1.785156 -2.601562 2.007812 -3.019531 2.46875 -3.019531 L 2.625 -3.019531 L 2.761719 -3.402344 L 2.761719 -3.433594 C 2.035156 -3.5 1.851562 -3 1.453125 -2.105469 Z M 1.355469 -2.789062 "/></g></g></g><g fill="#000000" fill-opacity="1"><g transform="translate(92.899871, 89.30297)"><g><path d="M 2.09375 -3.402344 L 1.308594 -3.402344 L 1.484375 -4.105469 L 1.460938 -4.105469 C 1.34375 -3.917969 1.054688 -3.539062 0.9375 -3.402344 L 0.476562 -3.402344 L 0.460938 -3.371094 C 0.539062 -3.351562 0.738281 -3.324219 0.898438 -3.296875 L 0.195312 -0.625 C 0.136719 0.03125 0.261719 0.0585938 0.359375 0.0585938 C 0.605469 0.0585938 1.210938 -0.605469 1.5 -0.839844 L 1.484375 -0.859375 L 0.402344 -0.195312 L 1.269531 -3.265625 C 1.621094 -3.234375 1.960938 -3.207031 2.046875 -3.207031 Z M 2.09375 -3.402344 "/></g></g></g><g fill="#000000" fill-opacity="1"><g transform="translate(94.757345, 89.30297)"><g/></g></g><g fill="#000000" fill-opacity="1"><g transform="translate(95.800151, 89.30297)"><g><path d="M 3.765625 -4.367188 C 4.179688 -4.203125 4.417969 -4.152344 4.042969 -3.421875 L 2.710938 -0.808594 L 2.671875 -0.808594 L 2.625 -3.148438 L 3.167969 -3.363281 L 3.167969 -3.402344 L 1.871094 -3.402344 L 1.871094 -3.371094 C 2.359375 -3.175781 2.425781 -3.160156 2.132812 -2.59375 L 1.230469 -0.808594 L 1.191406 -0.808594 L 1.082031 -4.144531 L 1.617188 -4.359375 L 1.617188 -4.398438 L 0.710938 -4.398438 L 0.703125 -4.359375 L 0.859375 0.0859375 L 0.894531 0.0859375 L 2.25 -2.523438 L 2.289062 -2.523438 L 2.347656 0.0859375 L 2.378906 0.0859375 L 4.6875 -4.359375 L 4.691406 -4.398438 L 3.765625 -4.398438 Z M 3.765625 -4.367188 "/></g></g></g><g fill="#000000" fill-opacity="1"><g transform="translate(100.036462, 89.30297)"><g><path d="M 2.429688 -2.914062 C 2.429688 -3.089844 2.332031 -3.460938 1.746094 -3.460938 C 1.550781 -3.460938 0.644531 -3.160156 0.273438 -1.824219 C -0.0585938 -0.625 0.371094 0.0664062 1.082031 0.0664062 C 1.265625 0.0664062 1.53125 -0.0976562 1.960938 -0.382812 L 1.929688 -0.421875 C 1.726562 -0.304688 1.621094 -0.203125 1.347656 -0.203125 C 0.660156 -0.203125 0.441406 -0.867188 0.527344 -1.609375 C 1.425781 -1.765625 2.429688 -2.085938 2.429688 -2.914062 Z M 1.558594 -3.1875 C 1.96875 -3.1875 2.019531 -2.914062 2.019531 -2.75 C 2.019531 -2.007812 1.050781 -1.78125 0.546875 -1.714844 C 0.558594 -1.820312 0.585938 -1.929688 0.613281 -2.039062 C 0.886719 -3.097656 1.335938 -3.1875 1.558594 -3.1875 Z M 1.558594 -3.1875 "/></g></g></g><g fill="#000000" fill-opacity="1"><g transform="translate(102.519602, 89.30297)"><g><path d="M 2.429688 -2.914062 C 2.429688 -3.089844 2.332031 -3.460938 1.746094 -3.460938 C 1.550781 -3.460938 0.644531 -3.160156 0.273438 -1.824219 C -0.0585938 -0.625 0.371094 0.0664062 1.082031 0.0664062 C 1.265625 0.0664062 1.53125 -0.0976562 1.960938 -0.382812 L 1.929688 -0.421875 C 1.726562 -0.304688 1.621094 -0.203125 1.347656 -0.203125 C 0.660156 -0.203125 0.441406 -0.867188 0.527344 -1.609375 C 1.425781 -1.765625 2.429688 -2.085938 2.429688 -2.914062 Z M 1.558594 -3.1875 C 1.96875 -3.1875 2.019531 -2.914062 2.019531 -2.75 C 2.019531 -2.007812 1.050781 -1.78125 0.546875 -1.714844 C 0.558594 -1.820312 0.585938 -1.929688 0.613281 -2.039062 C 0.886719 -3.097656 1.335938 -3.1875 1.558594 -3.1875 Z M 1.558594 -3.1875 "/></g></g></g><g fill="#000000" fill-opacity="1"><g transform="translate(105.002743, 89.30297)"><g><path d="M 2.027344 -0.195312 L 1.394531 -1.65625 C 2.085938 -1.785156 2.738281 -2.261719 2.738281 -2.933594 C 2.738281 -3.257812 2.5625 -3.472656 2.289062 -3.472656 C 1.5 -3.472656 0.894531 -1.5625 0.585938 -0.621094 L 0.515625 -0.621094 L 1.640625 -4.894531 L 1.65625 -4.945312 L 1.617188 -4.945312 L 0.398438 -4.667969 L 0.382812 -4.628906 L 1.210938 -4.667969 L 0.0898438 0 L 0.449219 0 C 0.632812 -0.539062 0.828125 -1.113281 1.03125 -1.617188 L 1.492188 -0.457031 C 1.617188 -0.136719 1.734375 0.0664062 1.917969 0.0664062 C 2.261719 0.0664062 2.621094 -0.558594 2.902344 -0.796875 L 2.878906 -0.820312 Z M 2.105469 -3.089844 C 2.230469 -3.089844 2.390625 -3.023438 2.390625 -2.789062 C 2.390625 -2.144531 1.707031 -1.707031 1.070312 -1.699219 C 1.394531 -2.488281 1.746094 -3.089844 2.105469 -3.089844 Z M 2.105469 -3.089844 "/></g></g></g></svg>